HIERARCHY
ROOT Hips
{
	OFFSET 0.000000 71.427986 0.000000
	CHANNELS 6 Xposition Yposition Zposition Xrotation Yrotation Zrotation
	JOINT Pelvis
	{
		OFFSET 0.000000 0.000000 0.000000
		CHANNELS 3 Xrotation Yrotation Zrotation
		JOINT LeftUpLeg
		{
			OFFSET 6.797100 -2.508499 -1.318700
			CHANNELS 3 Xrotation Yrotation Zrotation
			JOINT LeftLeg
			{
				OFFSET 0.069008 -29.241863 0.690200
				CHANNELS 3 Xrotation Yrotation Zrotation
				JOINT LeftFoot
				{
					OFFSET -0.069008 -29.568123 -0.266800
					CHANNELS 3 Xrotation Yrotation Zrotation
					JOINT LeftToeBase
					{
						OFFSET 3.145500 -8.631000 16.059900
						CHANNELS 3 Xrotation Yrotation Zrotation
						End Site
						{
							OFFSET 0.000000 18.501587 0.000000
						}
					}
				}
			}
			JOINT Left_ShortSleeve
			{
				OFFSET 0.265923 -10.480953 1.153800
				CHANNELS 3 Xrotation Yrotation Zrotation
				End Site
				{
					OFFSET 1.725763 19.823879 0.000000
				}
			}
		}
		JOINT RightUpLeg
		{
			OFFSET -6.797100 -2.508499 -1.318700
			CHANNELS 3 Xrotation Yrotation Zrotation
			JOINT RightLeg
			{
				OFFSET -0.082453 -29.241932 0.688000
				CHANNELS 3 Xrotation Yrotation Zrotation
				JOINT RightFoot
				{
					OFFSET 0.082453 -29.568058 -0.264600
					CHANNELS 3 Xrotation Yrotation Zrotation
					JOINT RightToeBase
					{
						OFFSET -3.115300 -8.682800 16.113400
						CHANNELS 3 Xrotation Yrotation Zrotation
						End Site
						{
							OFFSET 0.000000 18.567114 0.000000
						}
					}
				}
			}
			JOINT Right_ShortSleeve
			{
				OFFSET -0.265923 -10.480953 1.153800
				CHANNELS 3 Xrotation Yrotation Zrotation
				End Site
				{
					OFFSET -1.725766 19.823910 0.000000
				}
			}
		}
	}
	JOINT Spine
	{
		OFFSET 0.000000 13.368103 0.470500
		CHANNELS 3 Xrotation Yrotation Zrotation
		JOINT Spine1
		{
			OFFSET 0.147000 13.837402 0.538800
			CHANNELS 3 Xrotation Yrotation Zrotation
			JOINT Spine2
			{
				OFFSET 0.168000 16.242897 -1.435500
				CHANNELS 3 Xrotation Yrotation Zrotation
				JOINT Neck
				{
					OFFSET 0.217200 18.631500 -1.679100
					CHANNELS 3 Xrotation Yrotation Zrotation
					JOINT Head
					{
						OFFSET 0.000000 6.599396 1.385900
						CHANNELS 3 Xrotation Yrotation Zrotation
						JOINT Hat
						{
							OFFSET -0.532200 27.220596 -10.096100
							CHANNELS 3 Xrotation Yrotation Zrotation
							End Site
							{
								OFFSET 0.000000 22.029861 0.000000
							}
						}
						JOINT HairD
						{
							OFFSET -10.777400 17.437393 -1.325900
							CHANNELS 3 Xrotation Yrotation Zrotation
							JOINT HairD1
							{
								OFFSET -3.290299 -11.051193 1.062200
								CHANNELS 3 Xrotation Yrotation Zrotation
								End Site
								{
									OFFSET 0.000000 11.579437 0.000000
								}
							}
						}
						JOINT HairB
						{
							OFFSET -10.777400 17.437393 1.467900
							CHANNELS 3 Xrotation Yrotation Zrotation
							JOINT HairB1
							{
								OFFSET -1.561200 -12.956299 3.590200
								CHANNELS 3 Xrotation Yrotation Zrotation
								End Site
								{
									OFFSET 0.000000 13.534866 0.000000
								}
							}
						}
						JOINT HairA
						{
							OFFSET 9.713100 17.437393 1.467900
							CHANNELS 3 Xrotation Yrotation Zrotation
							JOINT HairA1
							{
								OFFSET 1.561200 -12.956299 3.590200
								CHANNELS 3 Xrotation Yrotation Zrotation
								End Site
								{
									OFFSET 0.000000 13.534866 0.000000
								}
							}
						}
						JOINT HairC
						{
							OFFSET 9.713100 17.437393 -1.325900
							CHANNELS 3 Xrotation Yrotation Zrotation
							JOINT HairC1
							{
								OFFSET 3.290300 -11.051193 1.062200
								CHANNELS 3 Xrotation Yrotation Zrotation
								End Site
								{
									OFFSET 0.000000 11.579437 0.000000
								}
							}
						}
					}
				}
				JOINT LeftShoulder
				{
					OFFSET 5.101800 15.108002 -2.763700
					CHANNELS 3 Xrotation Yrotation Zrotation
					JOINT LeftArm
					{
						OFFSET 9.825497 2.506317 -1.597400
						CHANNELS 3 Xrotation Yrotation Zrotation
						JOINT LeftForeArm
						{
							OFFSET 21.966244 0.000000 0.000000
							CHANNELS 3 Xrotation Yrotation Zrotation
							JOINT LeftHand
							{
								OFFSET 33.879036 0.000000 0.000000
								CHANNELS 3 Xrotation Yrotation Zrotation
								JOINT LeftHandThumb1
								{
									OFFSET 6.715286 -2.359680 3.363841
									CHANNELS 3 Xrotation Yrotation Zrotation
									JOINT LeftHandThumb2
									{
										OFFSET 2.507072 -1.447464 1.447461
										CHANNELS 3 Xrotation Yrotation Zrotation
										JOINT LeftHandThumb3
										{
											OFFSET 2.898338 -1.673355 1.673357
											CHANNELS 3 Xrotation Yrotation Zrotation
											End Site
											{
												OFFSET -0.295959 3.727692 -0.131651
											}
										}
									}
								}
								JOINT LeftHandIndex1
								{
									OFFSET 14.190811 -0.254547 3.840278
									CHANNELS 3 Xrotation Yrotation Zrotation
									JOINT LeftHandIndex2
									{
										OFFSET 3.551727 0.000000 -0.000000
										CHANNELS 3 Xrotation Yrotation Zrotation
										JOINT LeftHandIndex3
										{
											OFFSET 2.894196 0.000000 0.000000
											CHANNELS 3 Xrotation Yrotation Zrotation
											End Site
											{
												OFFSET -1.000603 2.690872 0.366626
											}
										}
									}
								}
								JOINT LeftHandMiddle1
								{
									OFFSET 13.776489 0.000000 0.000000
									CHANNELS 3 Xrotation Yrotation Zrotation
									JOINT LeftHandMiddle2
									{
										OFFSET 3.438232 0.000000 0.000000
										CHANNELS 3 Xrotation Yrotation Zrotation
										JOINT LeftHandMiddle3
										{
											OFFSET 3.691551 0.000000 0.000000
											CHANNELS 3 Xrotation Yrotation Zrotation
											End Site
											{
												OFFSET -1.082298 3.499527 0.457670
											}
										}
									}
								}
								JOINT LeftHandRing1
								{
									OFFSET 13.966164 -0.268127 -3.067488
									CHANNELS 3 Xrotation Yrotation Zrotation
									JOINT LeftHandRing2
									{
										OFFSET 3.162567 0.000000 0.000000
										CHANNELS 3 Xrotation Yrotation Zrotation
										JOINT LeftHandRing3
										{
											OFFSET 3.324348 0.000000 0.000000
											CHANNELS 3 Xrotation Yrotation Zrotation
											End Site
											{
												OFFSET -0.861900 3.184998 0.405154
											}
										}
									}
								}
								JOINT LeftHandPinky1
								{
									OFFSET 13.131393 -0.168503 -5.746925
									CHANNELS 3 Xrotation Yrotation Zrotation
									JOINT LeftHandPinky2
									{
										OFFSET 2.849182 0.000000 0.000000
										CHANNELS 3 Xrotation Yrotation Zrotation
										JOINT LeftHandPinky3
										{
											OFFSET 2.805038 0.000000 0.000000
											CHANNELS 3 Xrotation Yrotation Zrotation
											End Site
											{
												OFFSET -0.882500 2.642609 0.325652
											}
										}
									}
								}
							}
							JOINT Left_Sleeve
							{
								OFFSET 6.592125 -0.646545 0.805568
								CHANNELS 3 Xrotation Yrotation Zrotation
								End Site
								{
									OFFSET -0.000179 20.275787 -0.000000
								}
							}
						}
					}
				}
				JOINT RightShoulder
				{
					OFFSET -5.731700 15.108002 -2.763700
					CHANNELS 3 Xrotation Yrotation Zrotation
					JOINT RightArm
					{
						OFFSET -9.825497 2.506317 -1.597400
						CHANNELS 3 Xrotation Yrotation Zrotation
						JOINT RightForeArm
						{
							OFFSET -21.966242 0.000000 0.000000
							CHANNELS 3 Xrotation Yrotation Zrotation
							JOINT RightHand
							{
								OFFSET -33.879032 0.000000 0.000000
								CHANNELS 3 Xrotation Yrotation Zrotation
								JOINT RightHandThumb1
								{
									OFFSET -6.715286 -2.359680 3.363841
									CHANNELS 3 Xrotation Yrotation Zrotation
									JOINT RightHandThumb2
									{
										OFFSET -2.507072 -1.447464 1.447461
										CHANNELS 3 Xrotation Yrotation Zrotation
										JOINT RightHandThumb3
										{
											OFFSET -2.898338 -1.673355 1.673357
											CHANNELS 3 Xrotation Yrotation Zrotation
											End Site
											{
												OFFSET 0.295959 3.727692 -0.131651
											}
										}
									}
								}
								JOINT RightHandIndex1
								{
									OFFSET -14.190811 -0.254547 3.840278
									CHANNELS 3 Xrotation Yrotation Zrotation
									JOINT RightHandIndex2
									{
										OFFSET -3.551727 0.000000 -0.000000
										CHANNELS 3 Xrotation Yrotation Zrotation
										JOINT RightHandIndex3
										{
											OFFSET -2.894196 0.000000 0.000000
											CHANNELS 3 Xrotation Yrotation Zrotation
											End Site
											{
												OFFSET 1.000603 2.690872 0.366626
											}
										}
									}
								}
								JOINT RightHandMiddle1
								{
									OFFSET -13.776489 0.000000 0.000000
									CHANNELS 3 Xrotation Yrotation Zrotation
									JOINT RightHandMiddle2
									{
										OFFSET -3.438232 0.000000 0.000000
										CHANNELS 3 Xrotation Yrotation Zrotation
										JOINT RightHandMiddle3
										{
											OFFSET -3.691551 0.000000 0.000000
											CHANNELS 3 Xrotation Yrotation Zrotation
											End Site
											{
												OFFSET 1.082298 3.499527 0.457670
											}
										}
									}
								}
								JOINT RightHandRing1
								{
									OFFSET -13.966164 -0.268127 -3.067488
									CHANNELS 3 Xrotation Yrotation Zrotation
									JOINT RightHandRing2
									{
										OFFSET -3.162567 0.000000 0.000000
										CHANNELS 3 Xrotation Yrotation Zrotation
										JOINT RightHandRing3
										{
											OFFSET -3.324348 0.000000 0.000000
											CHANNELS 3 Xrotation Yrotation Zrotation
											End Site
											{
												OFFSET 0.861900 3.184998 0.405154
											}
										}
									}
								}
								JOINT RightHandPinky1
								{
									OFFSET -13.131393 -0.168503 -5.746925
									CHANNELS 3 Xrotation Yrotation Zrotation
									JOINT RightHandPinky2
									{
										OFFSET -2.849182 0.000000 0.000000
										CHANNELS 3 Xrotation Yrotation Zrotation
										JOINT RightHandPinky3
										{
											OFFSET -2.805038 0.000000 0.000000
											CHANNELS 3 Xrotation Yrotation Zrotation
											End Site
											{
												OFFSET 0.882500 2.642609 0.325652
											}
										}
									}
								}
							}
							JOINT Right_Sleeve
							{
								OFFSET -6.592125 -0.646545 0.805568
								CHANNELS 3 Xrotation Yrotation Zrotation
								End Site
								{
									OFFSET 0.000179 20.275787 -0.000000
								}
							}
						}
					}
				}
				JOINT Bind_Right_JacketString
				{
					OFFSET -3.534800 11.969597 7.200700
					CHANNELS 3 Xrotation Yrotation Zrotation
					JOINT Bind_Right_JacketString1
					{
						OFFSET -0.319900 -6.102600 2.794100
						CHANNELS 3 Xrotation Yrotation Zrotation
						End Site
						{
							OFFSET 0.000000 6.719452 0.000000
						}
					}
				}
				JOINT Bind_Left_JacketString
				{
					OFFSET 2.904800 11.969597 7.200700
					CHANNELS 3 Xrotation Yrotation Zrotation
					JOINT Bind_Left_JacketString1
					{
						OFFSET 0.364800 -5.904503 3.186800
						CHANNELS 3 Xrotation Yrotation Zrotation
						End Site
						{
							OFFSET 0.000000 6.719513 0.000000
						}
					}
				}
				JOINT HairE
				{
					OFFSET 5.915200 17.612701 -11.592200
					CHANNELS 3 Xrotation Yrotation Zrotation
					JOINT HairE1
					{
						OFFSET 0.289200 -7.171898 -1.284500
						CHANNELS 3 Xrotation Yrotation Zrotation
						End Site
						{
							OFFSET 0.000000 7.291756 0.000000
						}
					}
				}
				JOINT HairF
				{
					OFFSET -0.864800 17.612701 -11.592200
					CHANNELS 3 Xrotation Yrotation Zrotation
					JOINT HairF1
					{
						OFFSET 0.000000 -14.087097 -2.127501
						CHANNELS 3 Xrotation Yrotation Zrotation
						End Site
						{
							OFFSET 0.000000 14.246841 0.000000
						}
					}
				}
				JOINT HairG
				{
					OFFSET -8.087700 17.612701 -11.592200
					CHANNELS 3 Xrotation Yrotation Zrotation
					JOINT HairG1
					{
						OFFSET -0.293600 -6.081398 -0.910100
						CHANNELS 3 Xrotation Yrotation Zrotation
						End Site
						{
							OFFSET 0.000000 6.156120 0.000000
						}
					}
				}
			}
		}
	}
	JOINT Pouch
	{
		OFFSET 0.000000 4.394501 10.847300
		CHANNELS 3 Xrotation Yrotation Zrotation
		End Site
		{
			OFFSET 0.000000 21.880577 0.000000
		}
	}
	JOINT Bag
	{
		OFFSET -13.229000 4.813004 -0.593300
		CHANNELS 3 Xrotation Yrotation Zrotation
		End Site
		{
			OFFSET 0.000000 21.880577 0.000000
		}
	}
	JOINT OccupyGuyFacialAnim_Joint
	{
		OFFSET 1.000000 -70.206398 -1.655000
		CHANNELS 3 Xrotation Yrotation Zrotation
		End Site
		{
			OFFSET 0.000000 21.880577 0.000000
		}
	}
}
MOTION
Frames: 4
Frame Time: 0.033333
-1.203409 67.627777 -1.173391 4.310413 -15.225972 -0.424588 0.000000 -0.000001 0.000000 -31.462559 3.468802 10.353879 29.416433 3.788022 1.993180 -1.647404 0.504506 -7.066631 0.000000 -0.000000 0.000000 -0.000000 0.000000 -0.000000 -15.640276 -11.126102 -10.536149 34.784866 -6.471171 2.648467 -20.814971 -2.135842 9.131441 -0.000000 0.000001 0.000000 -0.000000 -0.000001 0.000000 22.739259 3.655965 0.340645 3.693745 1.002745 -0.762674 3.689488 1.073049 -0.761003 -12.242035 1.163235 2.331859 -13.691027 7.753592 -3.271833 -0.000000 0.000000 -0.000000 -0.000000 0.000000 -0.000000 -0.000000 0.000000 0.000000 -0.000000 0.000000 -0.000000 -0.000000 -0.000000 -0.000000 -0.000000 0.000000 -0.000000 -0.000000 -0.000000 -0.000000 -0.000000 0.000000 -0.000000 -0.000000 0.000000 -0.000000 7.865506 -21.306403 9.906116 -32.740478 -13.553936 -85.195552 0.032276 -42.174243 1.373150 -25.023117 -11.556953 -12.240030 -7.471926 1.860684 -7.166902 30.987018 27.310522 -4.510885 -0.000003 -0.000000 -0.000002 -4.707157 11.366749 -75.716533 -0.816419 3.073979 -46.874618 0.000001 -0.000003 -0.000002 1.623358 16.580959 -84.691279 0.018008 0.022018 -72.884860 0.000001 -0.000001 0.000002 -6.436874 23.133403 -89.739827 0.012870 0.975916 -51.002993 0.000000 0.000001 0.000000 -17.080777 22.136865 -87.150092 0.011715 0.023186 -58.127273 -0.000000 0.000001 0.000001 0.000002 0.000002 -0.000001 13.993053 27.795221 -23.524783 -39.653083 17.004856 84.344360 -0.001498 57.547103 -13.810776 -30.798488 16.505514 8.440522 9.347157 2.810559 -11.364502 16.169086 -43.266025 15.843570 0.000001 -0.000001 0.000002 17.076786 -0.396551 31.924328 -0.204412 -0.284209 112.811571 -0.000000 0.000001 0.000001 9.205490 -5.035904 102.738080 0.014982 -0.019210 61.018499 0.000001 0.000001 -0.000002 5.569119 -8.935193 107.329094 0.547991 -0.005782 41.263724 0.000001 -0.000000 -0.000001 6.511245 -17.148242 98.227997 0.007417 -0.015746 43.845733 -0.000002 0.000002 0.000001 0.000001 0.000001 -0.000002 0.000000 -0.000000 -0.000000 0.000002 -0.000000 -0.000000 0.000000 -0.000000 -0.000000 0.000000 -0.000000 -0.000000 0.000000 -0.000000 -0.000000 0.000002 -0.000000 -0.000000 0.000000 -0.000000 -0.000000 0.000000 -0.000000 -0.000000 0.000000 -0.000000 -0.000000 0.000002 -0.000000 -0.000000 0.000000 -0.000001 0.000000 0.000000 -0.000001 0.000000 0.000000 -0.000001 0.000000 
-1.174950 67.635185 -1.160346 4.318551 -15.248638 -0.419361 0.000000 -0.000000 0.000000 -31.447284 3.470552 10.331636 29.407270 3.832902 1.979681 -1.658774 0.501017 -7.042953 0.000000 0.000000 0.000000 -0.000001 0.000000 0.000000 -15.609598 -11.112299 -10.543014 34.691186 -6.448303 2.618974 -20.773329 -2.138660 9.158902 0.000000 0.000002 -0.000000 -0.000000 0.000002 0.000000 22.726017 3.700460 0.352612 3.685189 1.014165 -0.764862 3.680876 1.084641 -0.763671 -12.204142 1.150184 2.314912 -13.681749 7.751741 -3.289638 -0.000000 0.000000 0.000000 -0.000000 0.000000 0.000000 -0.000000 0.000000 0.000000 -0.000000 0.000000 0.000000 -0.000001 0.000000 0.000000 -0.000000 0.000000 0.000000 -0.000001 0.000000 0.000000 -0.000000 0.000000 0.000000 -0.000000 0.000000 0.000000 7.847715 -21.289570 9.871092 -32.859261 -13.609356 -85.186618 0.003762 -41.941552 1.266832 -25.035522 -11.760860 -12.240888 -7.471924 1.860691 -7.166901 30.987018 27.310522 -4.510879 -0.000001 0.000003 0.000001 -4.707154 11.366759 -75.716533 -0.816418 3.073981 -46.874622 0.000001 -0.000001 -0.000000 1.623359 16.580969 -84.691272 0.018008 0.022018 -72.884860 -0.000002 0.000001 0.000001 -6.436871 23.133405 -89.739827 0.012873 0.975919 -51.002996 -0.000001 0.000001 0.000001 -17.080771 22.136868 -87.150092 0.011718 0.023185 -58.127273 -0.000000 -0.000001 0.000001 0.000001 0.000000 -0.000000 13.989255 27.805234 -23.505618 -39.615978 16.986558 84.334285 -0.001419 57.553742 -13.851846 -30.716249 16.542614 8.479137 9.347158 2.810557 -11.364504 16.169086 -43.266025 15.843570 0.000000 -0.000001 -0.000000 17.076788 -0.396551 31.924325 -0.204413 -0.284209 112.811571 -0.000002 -0.000000 0.000002 9.205489 -5.035907 102.738073 0.014981 -0.019206 61.018492 0.000001 0.000000 -0.000002 5.569120 -8.935196 107.329087 0.547992 -0.005784 41.263724 -0.000001 0.000000 -0.000001 6.511242 -17.148245 98.227997 0.007412 -0.015746 43.845733 0.000000 0.000007 -0.000002 -0.000001 -0.000001 0.000001 -0.000001 0.000000 0.000001 -0.000001 -0.000000 0.000000 -0.000001 0.000000 0.000000 -0.000001 0.000000 0.000000 -0.000001 0.000000 0.000001 -0.000001 -0.000000 0.000000 -0.000001 0.000000 0.000000 -0.000001 0.000000 0.000000 -0.000001 0.000000 0.000001 -0.000001 -0.000000 0.000000 0.000000 -0.000000 0.000000 0.000000 -0.000000 0.000000 0.000000 -0.000000 0.000000 
-1.135267 67.644707 -1.140352 4.337746 -15.282258 -0.411565 -0.000001 -0.000001 0.000000 -31.436441 3.477686 10.302837 29.395215 3.882179 1.964706 -1.674041 0.499972 -7.013339 -0.000000 -0.000000 -0.000000 -0.000003 -0.000000 0.000000 -15.579810 -11.106504 -10.551048 34.574817 -6.454472 2.577306 -20.717690 -2.142686 9.197831 0.000000 0.000000 -0.000000 -0.000000 0.000001 0.000001 22.713417 3.750859 0.372008 3.675544 1.026282 -0.767593 3.671050 1.097129 -0.766896 -12.173211 1.150373 2.296095 -13.681357 7.765767 -3.328310 -0.000000 -0.000000 0.000000 -0.000000 -0.000000 0.000000 -0.000000 -0.000000 0.000000 -0.000000 -0.000000 0.000000 -0.000000 -0.000000 0.000000 -0.000000 -0.000000 0.000000 -0.000000 -0.000000 0.000000 -0.000000 -0.000000 0.000000 -0.000000 -0.000000 0.000000 7.831645 -21.272662 9.837091 -32.910273 -13.613732 -85.189343 -0.009369 -41.883936 1.204780 -24.982197 -11.834901 -12.196514 -7.471923 1.860690 -7.166906 30.987018 27.310527 -4.510885 0.000000 0.000001 -0.000001 -4.707157 11.366756 -75.716526 -0.816417 3.073977 -46.874618 0.000002 0.000000 0.000002 1.623352 16.580967 -84.691272 0.018007 0.022020 -72.884860 0.000001 0.000002 0.000001 -6.436874 23.133407 -89.739827 0.012870 0.975921 -51.002993 0.000002 -0.000003 0.000000 -17.080778 22.136867 -87.150092 0.011718 0.023188 -58.127273 0.000000 -0.000001 0.000001 0.000002 -0.000000 0.000000 13.984866 27.819179 -23.495497 -39.560223 16.960393 84.300981 -0.000500 57.621545 -13.873728 -30.677013 16.551722 8.516319 9.347157 2.810557 -11.364502 16.169090 -43.266025 15.843565 0.000001 0.000000 0.000000 17.076788 -0.396550 31.924325 -0.204410 -0.284208 112.811571 -0.000001 0.000001 -0.000001 9.205489 -5.035907 102.738073 0.014985 -0.019209 61.018492 0.000001 -0.000002 0.000001 5.569122 -8.935196 107.329094 0.547992 -0.005783 41.263720 -0.000001 -0.000001 -0.000003 6.511244 -17.148245 98.227997 0.007420 -0.015750 43.845740 -0.000000 0.000001 -0.000001 0.000002 -0.000002 0.000000 -0.000001 -0.000001 0.000000 0.000000 -0.000001 0.000000 -0.000001 -0.000001 0.000000 -0.000001 -0.000001 0.000000 -0.000001 -0.000001 0.000000 0.000000 -0.000001 0.000000 -0.000001 -0.000001 0.000000 -0.000001 -0.000001 0.000000 -0.000001 -0.000001 0.000000 0.000000 -0.000001 0.000000 -0.000001 -0.000001 0.000000 -0.000001 -0.000001 0.000000 -0.000001 -0.000001 0.000000 
-1.086170 67.656982 -1.112035 4.359380 -15.319529 -0.401577 0.000000 0.000002 -0.000000 -31.419854 3.492987 10.264084 29.383054 3.918316 1.949536 -1.700343 0.499492 -6.974249 -0.000000 -0.000000 -0.000000 0.000001 -0.000000 -0.000000 -15.536659 -11.085392 -10.561621 34.435198 -6.452858 2.526987 -20.640719 -2.151656 9.266190 -0.000000 0.000001 0.000000 0.000001 0.000002 0.000001 22.709966 3.786198 0.394138 3.669845 1.035742 -0.769630 3.665546 1.107118 -0.769282 -12.167653 1.159977 2.274671 -13.702530 7.776276 -3.358182 0.000000 -0.000000 -0.000000 0.000000 -0.000000 -0.000000 0.000000 -0.000000 0.000000 0.000000 -0.000000 -0.000000 -0.000001 0.000000 -0.000000 0.000000 -0.000000 -0.000000 -0.000001 0.000000 -0.000000 0.000000 -0.000000 -0.000000 0.000000 -0.000000 -0.000000 7.817595 -21.256554 9.804573 -32.874848 -13.558690 -85.205859 -0.003896 -42.022257 1.211563 -24.863137 -11.778855 -12.111983 -7.471925 1.860686 -7.166906 30.987018 27.310520 -4.510881 0.000001 0.000002 -0.000001 -4.707157 11.366755 -75.716533 -0.816419 3.073979 -46.874622 0.000000 -0.000001 -0.000000 1.623355 16.580966 -84.691279 0.018011 0.022018 -72.884860 0.000002 -0.000001 0.000001 -6.436871 23.133403 -89.739827 0.012873 0.975919 -51.002996 -0.000002 -0.000001 -0.000002 -17.080773 22.136868 -87.150092 0.011716 0.023183 -58.127273 0.000000 0.000001 -0.000001 0.000001 -0.000003 0.000001 13.986465 27.831894 -23.503627 -39.512347 16.938162 84.268436 0.000295 57.734530 -13.887915 -30.671791 16.540579 8.563726 9.347157 2.810559 -11.364502 16.169090 -43.266025 15.843570 0.000000 0.000002 -0.000000 17.076789 -0.396549 31.924328 -0.204411 -0.284209 112.811571 -0.000000 0.000001 0.000000 9.205488 -5.035906 102.738073 0.014982 -0.019205 61.018499 0.000001 -0.000002 -0.000003 5.569121 -8.935195 107.329094 0.547992 -0.005782 41.263724 -0.000000 0.000001 -0.000002 6.511245 -17.148242 98.227997 0.007413 -0.015747 43.845740 -0.000001 0.000001 -0.000003 0.000000 0.000003 0.000001 -0.000001 0.000001 0.000000 0.000001 0.000000 -0.000001 -0.000001 0.000001 0.000000 -0.000001 0.000001 0.000000 -0.000001 0.000001 0.000000 0.000001 0.000000 -0.000001 -0.000001 0.000001 0.000000 -0.000001 0.000001 0.000000 -0.000001 0.000001 0.000000 0.000001 0.000000 -0.000001 0.000000 0.000002 -0.000000 0.000000 0.000002 -0.000000 0.000000 0.000002 -0.000000 
